<?xml version="1.0" standalone="no"?>
<!DOCTYPE svg PUBLIC "-//W3C//DTD SVG 20010904//EN"
 "http://www.w3.org/TR/2001/REC-SVG-20010904/DTD/svg10.dtd">
<svg version="1.0" xmlns="http://www.w3.org/2000/svg"
 width="300.000000pt" height="300.000000pt" viewBox="0 0 300.000000 300.000000"
 preserveAspectRatio="xMidYMid meet">

<g transform="translate(0.000000,300.000000) scale(0.100000,-0.100000)"
fill="#000000" stroke="none">
<path d="M1339 2113 c5 -10 44 -76 85 -147 42 -71 75 -130 73 -132 -1 -1 -64
-38 -141 -82 l-139 -81 -79 137 c-44 75 -85 142 -91 147 -13 13 -12 11 71
-131 39 -66 74 -128 78 -137 5 -15 -10 -17 -163 -20 l-168 -3 173 -2 172 -2 0
-165 0 -165 -172 -2 -173 -2 168 -3 c153 -3 168 -5 163 -20 -4 -9 -39 -71 -78
-137 -83 -142 -84 -144 -71 -131 6 6 47 72 91 147 l79 137 139 -81 c77 -44
140 -81 141 -82 2 -2 -31 -61 -73 -132 -93 -158 -96 -164 -90 -164 2 0 41 63
86 140 45 77 84 140 85 140 1 0 40 -63 85 -140 45 -77 84 -140 86 -140 6 0 3
6 -90 164 -42 71 -75 130 -73 132 1 1 64 38 141 82 l139 81 79 -137 c44 -75
85 -141 91 -147 13 -13 12 -11 -71 131 -39 66 -74 128 -78 137 -5 15 10 17
163 20 l168 3 -172 2 -173 2 0 165 0 165 173 2 172 2 -168 3 c-153 3 -168 5
-163 20 4 9 39 71 78 137 83 142 84 144 71 131 -6 -5 -47 -72 -91 -147 l-79
-137 -139 81 c-77 44 -140 81 -141 82 -2 2 31 61 73 132 93 158 96 164 90 164
-2 0 -41 -63 -86 -140 -45 -77 -84 -140 -85 -140 -1 0 -40 63 -85 140 -45 77
-84 140 -86 140 -3 0 0 -8 5 -17z m358 -396 l93 -52 -1 -170 0 -170 -138 -79
c-76 -44 -142 -80 -146 -80 -4 0 -70 36 -146 80 l-138 79 0 170 0 170 142 82
142 82 50 -30 c28 -16 92 -53 142 -82z"/>
</g>
</svg>
